<?xml version="1.0" encoding="UTF-8"?>
<svg width="242px" height="208px" viewBox="0 0 242 208" version="1.1" xmlns="http://www.w3.org/2000/svg" xmlns:xlink="http://www.w3.org/1999/xlink">
    <!-- Generator: sketchtool 55.2 (78181) - https://sketchapp.com -->
    <title>5A320C83-F301-4D1A-9139-618317A3EA1F</title>
    <desc>Created with sketchtool.</desc>
    <defs>
        <path d="M89.8457527,66.0882162 C89.8457527,102.518919 70.0056559,132.053189 45.531129,132.053189 C21.0579032,132.053189 1.21780645,102.518919 1.21780645,66.0882162 C1.21780645,29.6562162 21.0579032,0.121945946 45.531129,0.121945946" id="path-1"></path>
        <linearGradient x1="-10.4171382%" y1="216.328125%" x2="60.0937929%" y2="32.3524306%" id="linearGradient-3">
            <stop stop-color="#220022" offset="0%"></stop>
            <stop stop-color="#E22213" offset="100%"></stop>
        </linearGradient>
    </defs>
    <g id="Desktop" stroke="none" stroke-width="1" fill="none" fill-rule="evenodd">
        <g id="Expert_Style_Tips_DESKTOP_Oval" transform="translate(-304.000000, -753.000000)">
            <g id="Oval" transform="translate(304.000000, 753.000000)">
                <g id="Group-10">
                    <g id="Group-3" transform="translate(75.462366, 5.473297)">
                        <mask id="mask-2" fill="white">
                            <use xlink:href="#path-1"></use>
                        </mask>
                        <g id="Clip-2"></g>
                        <path d="M89.8457527,66.0882162 C89.8457527,102.518919 70.0056559,132.053189 45.531129,132.053189 C21.0579032,132.053189 1.21780645,102.518919 1.21780645,66.0882162 C1.21780645,29.6562162 21.0579032,0.121945946 45.531129,0.121945946 C70.0056559,0.121945946 89.8457527,29.6562162 89.8457527,66.0882162" id="Fill-1" mask="url(#mask-2)"></path>
                    </g>
                    <path d="M122.527332,1.00332973 C122.527332,1.00332973 80.3803,-1.56012973 74.9990527,40.1272216 C74.3784398,44.9220324 74.0896011,55.868627 74.4669129,61.1836541 C74.5111495,61.8115459 74.0388591,62.3473297 73.4078376,62.3888432 C71.8608591,62.4887351 69.3211602,62.4394378 67.7741817,64.7032216 C67.2576548,65.4595459 67.0924183,66.3961946 67.1535688,67.3081946 C67.3864613,70.7395459 68.4429344,81.9780324 72.5868591,89.1702486 C73.328472,90.454573 74.5762032,91.2874378 75.9774613,91.7752216 C77.2837409,92.2292757 79.4760527,93.2178162 79.3225258,94.8627892 L80.1500097,104.715762 C80.1864398,106.512519 80.4050204,108.292411 80.812257,110.042465 C82.9343108,119.152086 92.7366118,144.74387 121.288709,144.74387" id="Stroke-4" stroke="#3E3D3D" stroke-width="1.95"></path>
                    <path d="M119.460177,1.00332973 C119.460177,1.00332973 161.60721,-1.56012973 166.988457,40.1272216 C167.607769,44.9220324 167.897909,55.868627 167.520597,61.1836541 C167.47636,61.8115459 167.948651,62.3473297 168.579672,62.3888432 C170.126651,62.4887351 172.665048,62.4394378 174.213328,64.7032216 C174.729855,65.4595459 174.895091,66.3961946 174.833941,67.3081946 C174.601048,70.7395459 173.544575,81.9780324 169.400651,89.1702486 C168.659038,90.454573 167.411306,91.2874378 166.010048,91.7752216 C164.703769,92.2292757 162.511457,93.2178162 162.664984,94.8627892 L161.836199,104.715762 C161.80107,106.512519 161.582489,108.292411 161.175253,110.042465 C159.053199,119.152086 149.250898,144.74387 120.6975,144.74387" id="Stroke-6" stroke="#3E3D3D" stroke-width="1.95"></path>
                    <path d="M0.676689247,206.811589 C6.55754946,185.491131 17.8248613,165.988154 31.4080871,163.469893 L89.123786,152.741508 L89.123786,147.811589 C89.123786,147.811589 119.998302,178.413437 153.657119,147.811589 L153.657119,152.881315 L210.579162,163.469893 C224.162388,165.988154 235.4297,185.491131 241.31056,206.811589" id="Stroke-8" stroke="#636363" stroke-width="1.352" stroke-linecap="round" stroke-linejoin="round"></path>
                </g>
                <ellipse fill="url(#linearGradient-3)" opacity="0.703404018" cx="121" cy="72.5" rx="43" ry="67.5"></ellipse>
            </g>
        </g>
    </g>
</svg>